<svg xmlns="http://www.w3.org/2000/svg" xmlns:xlink="http://www.w3.org/1999/xlink" width="16px" height="16px" viewBox="0 0 16 16" version="1.1">
<g>
<path d="M 16 8.171875 C 16 12.316406 12.824219 15.265625 8.128906 15.265625 C 3.632812 15.265625 0 12.019531 0 8 C 0 3.980469 3.632812 0.734375 8.128906 0.734375 C 10.320312 0.734375 12.164062 1.453125 13.582031 2.636719 L 11.371094 4.539062 C 8.476562 2.039062 3.089844 3.914062 3.089844 8 C 3.089844 10.535156 5.359375 12.585938 8.128906 12.585938 C 11.351562 12.585938 12.558594 10.527344 12.746094 9.457031 L 8.128906 9.457031 L 8.128906 6.957031 L 15.871094 6.957031 C 15.945312 7.328125 16 7.6875 16 8.171875 Z M 16 8.171875 "/>
</g>
</svg>
